<?xml version="1.0"?><svg version="1.2" baseProfile="tiny-ps" viewBox="0 0 180 180" xmlns="http://www.w3.org/2000/svg" xmlns:xlink="http://www.w3.org/1999/xlink"><title>ALM</title><g><g fill="#fefefe" transform="matrix(.1 0 0 -.1 0 180)"><path d="M0 900V0h1800v1800H0V900z"/></g><g fill="#e6e6e6" transform="matrix(.1 0 0 -.1 0 180)"><path d="m1094 1270-56-80-10 6-11 7 7-11 7-12-46-65-47-65-10 7-11 6 7-11 7-11-61-86-61-85-10 6-9 5 1-8c3-13-18-58-33-70l-14-12-99 134c-54 74-102 135-106 135-8 0-85-102-151-202-25-37-47-65-50-63-3 3-5-1-5-8s-12-31-28-55l-27-42-11 7-10 6 7-11 7-11-17-26-16-25-11 7-10 6 7-11 6-11-50-77c-27-42-50-81-50-86s68 49 151 119 163 137 177 148c15 10 31 25 35 32s17 17 27 23l20 11 100-136c55-74 103-135 107-135 9 0 55 56 72 88l12 23 11-7 11-7-6 10-7 10 61 84 60 84 10-3 10-2-6 9-6 10 94 129 93 129 34-40c18-22 33-46 33-53s4-12 8-11c5 1 53-54 109-121l100-124-7-10-6-11 11 7 10 6 94-116c51-64 92-120 90-126l-2-9 10 6 10 6v-10c0-6 5-11 10-11 18 0 11 17-56 130l-65 111 13 17 13 17-16-12-15-13-60 103c-32 56-58 108-57 115 0 7-2 11-5 8-3-4-38 49-78 116l-73 123 4 13 5 13-9-5-8-5-21 38-22 38 8 8 7 8-11-6-11-6-19 39c-10 22-22 40-26 40s-33-36-64-80z"/></g><g fill="#b6b6b6" transform="matrix(.1 0 0 -.1 0 180)"><path d="M954 1070C845 917 752 791 749 790c-4 0-51 61-105 135-55 74-102 135-105 135-8 0-92-118-230-325-137-204-183-278-170-274 5 2 95 77 200 167 104 89 193 162 198 162 4-1 52-61 107-136 54-74 102-134 106-132s97 127 205 278 198 276 199 277c2 2 117-137 256-307 139-171 255-309 258-306 2 3-13 36-35 73s-136 232-253 433-216 368-219 373l-7 7-200-280z"/></g><g fill="#7f7f7f" transform="matrix(.1 0 0 -.1 0 180)"><path d="M1138 1323c-8-10-99-136-202-281L749 780l-89 119c-49 66-95 129-102 140-7 12-15 21-18 21-12 0-400-574-400-591 0-7 259 208 376 313l22 19 103-140c56-78 105-141 108-140 3 0 88 116 189 257 100 141 191 268 201 281l18 24 89-109c49-60 163-200 254-311 90-111 166-201 168-199 1 2-58 109-134 237-75 129-186 320-246 424-61 105-116 196-122 203l-12 13-16-18z"/></g><g fill="#444" transform="matrix(.1 0 0 -.1 0 180)"><path d="M953 1061C844 907 753 781 750 781c-3-1-52 62-108 139l-104 141-52-73c-55-78-274-403-321-478l-28-45 19 15c15 11 271 227 366 308l17 14 105-141 104-142 199 277c109 153 203 279 208 280l10 3 235-290c129-159 243-299 253-312l19-22-33 60c-18 33-115 199-214 370-100 171-201 343-224 383-23 39-43 72-45 72s-93-126-203-279z"/></g><g fill="#030303" transform="matrix(.1 0 0 -.1 0 180)"><path d="M955 1060C845 906 752 780 749 780c-5 0-133 168-202 264l-7 11-20-25c-20-24-347-509-365-540l-9-15 19 15c11 8 98 81 193 163 95 81 176 147 180 147s51-61 106-135c54-74 101-135 105-135 3 0 96 126 205 280 110 154 200 280 201 280 2 0 105-126 231-281s239-293 252-308c12-14-91 167-229 404-138 236-252 431-253 432s-92-124-201-277z"/></g></g></svg>