<svg xmlns="http://www.w3.org/2000/svg"  viewBox="0 0 100 100" width="400px" height="400px"><path fill="#6acef5" d="M85,50c0-19.33-15.67-35-35-35S15,30.67,15,50s15.67,35,35,35S85,69.33,85,50z M21,50 c0-16.016,12.984-29,29-29s29,12.984,29,29S66.016,79,50,79S21,66.016,21,50z"/><path fill="#8578b7" d="M30.564,50.519l6.785-6.923c1.238-1.284,6.756-5.156,13.157,2.246 c1.284,1.375,2.98,3.026,2.98,3.026s3.805,2.705,7.519-0.871c1.146-1.146,3.026-3.072,3.026-3.072l5.501,5.501l-6.189,5.868 c0,0-5.914,6.006-11.645,0.779c-4.678-4.266-6.189-5.822-6.189-5.822s-2.659-1.971-5.822,1.284s-3.438,3.53-3.438,3.53 L30.564,50.519z"/><path fill="#1f212b" d="M56.813,60.21c-1.868,0-3.868-0.644-5.788-2.396c-4.146-3.782-5.807-5.433-6.16-5.79 c-0.359-0.227-2.16-1.156-4.461,1.209c-3.171,3.264-3.446,3.54-3.446,3.54c-0.388,0.388-1.015,0.392-1.406,0.009l-5.686-5.547 c-0.19-0.186-0.299-0.439-0.302-0.705s0.1-0.521,0.286-0.711l6.785-6.923c0.248-0.257,2.591-2.562,6.208-2.458 c2.93,0.08,5.763,1.678,8.42,4.75c1.09,1.167,2.537,2.587,2.856,2.9c0.441,0.281,3.325,1.948,6.192-0.812 c1.129-1.13,3.002-3.049,3.003-3.05c0.187-0.191,0.442-0.3,0.71-0.302c0.299-0.014,0.524,0.104,0.713,0.293l5.502,5.501 c0.19,0.191,0.297,0.451,0.293,0.72c-0.004,0.27-0.116,0.527-0.312,0.712l-6.189,5.868C62.626,58.449,59.899,60.209,56.813,60.21z M43.502,49.662c1.138,0,2.065,0.39,2.603,0.788c0.043,0.032,0.084,0.068,0.121,0.106c0.016,0.016,1.56,1.597,6.146,5.781 c4.937,4.503,10.044-0.527,10.26-0.744l5.467-5.184l-4.061-4.061c-0.653,0.667-1.626,1.657-2.326,2.357 c-3.424,3.297-7.257,2.081-8.805,0.979c-0.042-0.03-0.081-0.063-0.118-0.098c-0.07-0.068-1.729-1.683-3.014-3.06 c-2.3-2.659-4.643-4.024-6.987-4.088c-2.22-0.061-4.027,1.136-4.72,1.854l-6.089,6.213l4.253,4.149 c0.492-0.504,1.326-1.362,2.737-2.813C40.574,50.189,42.18,49.662,43.502,49.662z"/><path fill="#1f212b" d="M62.033,55.3c-1.044,0-2.13-0.247-3.24-0.743c-0.252-0.113-0.365-0.408-0.252-0.661 c0.112-0.252,0.408-0.366,0.66-0.252c2.391,1.067,4.552,0.838,6.426-0.68c0.212-0.174,0.528-0.143,0.703,0.073 c0.174,0.214,0.141,0.529-0.074,0.703C64.978,54.778,63.55,55.3,62.033,55.3z"/><path fill="#1f212b" d="M57.15,53.551c-0.099,0-0.197-0.029-0.284-0.088c-1.477-1.019-2.416-2.081-2.455-2.125 c-0.014-0.017-1.303-1.494-2.993-3.184c-1.082-1.179-2.347-1.594-3.867-1.284c-0.273,0.056-0.535-0.12-0.59-0.391 c-0.055-0.271,0.12-0.534,0.391-0.589c1.874-0.379,3.483,0.149,4.788,1.573c1.701,1.7,3.012,3.202,3.024,3.217 c0.008,0.008,0.901,1.016,2.271,1.96c0.228,0.157,0.284,0.468,0.127,0.696C57.465,53.475,57.309,53.551,57.15,53.551z"/><path fill="#1f212b" d="M35.901,55.959c-0.133,0-0.265-0.052-0.363-0.156c-0.189-0.201-0.181-0.517,0.02-0.707l6.176-5.841 c1.19-1.144,2.394-2.029,3.571-2.628c0.245-0.123,0.548-0.026,0.672,0.219c0.126,0.246,0.027,0.547-0.219,0.672 c-1.074,0.546-2.228,1.397-3.334,2.46l-6.179,5.844C36.148,55.914,36.024,55.959,35.901,55.959z"/><path fill="#1fa4da" d="M50,21c16.016,0,29,12.984,29,29S66.016,79,50,79c-10.328,0-19.388-5.403-24.526-13.533 c1.379,4.969,3.338,9.694,5.806,14.099C36.695,83.002,43.112,85,50,85c19.33,0,35-15.67,35-35S69.33,15,50,15 c-8.04,0-15.441,2.717-21.351,7.275c-2.042,4.588-3.557,9.459-4.476,14.54C28.974,27.429,38.733,21,50,21z"/><path fill="#8578b7" d="M50,21c16.016,0,29,12.984,29,29S66.016,79,50,79c-2.191,0-4.322-0.251-6.374-0.711 c1.64,2.379,3.473,4.613,5.471,6.689C49.398,84.985,49.697,85,50,85c19.33,0,35-15.67,35-35S69.33,15,50,15 c-1.388,0-2.754,0.09-4.1,0.247c-1.798,2.245-3.417,4.639-4.835,7.162C43.881,21.498,46.881,21,50,21z"/><path fill="#944198" d="M55.373,21.505C68.821,24.026,79,35.821,79,50c0,13.256-8.897,24.426-21.043,27.886 c1.659,1.64,3.458,3.136,5.372,4.48C76.046,77.123,85,64.609,85,50c0-15.739-10.389-29.049-24.684-33.452 C58.534,18.06,56.879,19.717,55.373,21.505z"/><path fill="#f05686" d="M79,50c0,8.369-3.55,15.905-9.22,21.198c1.638,1.249,3.414,2.324,5.301,3.202 C81.216,68.095,85,59.492,85,50c0-10.644-4.757-20.171-12.255-26.59c-1.794,1.046-3.468,2.275-4.988,3.67 C74.595,32.385,79,40.676,79,50z"/><path fill="#f490a7" d="M79,50c0,4.079-0.846,7.96-2.366,11.481c1.559,1.253,3.345,2.231,5.286,2.871 C83.893,59.971,85,55.116,85,50c0-6.26-1.651-12.131-4.53-17.215c-1.866,0.812-3.552,1.953-4.996,3.347 C77.722,40.252,79,44.976,79,50z"/><path fill="#1f212b" d="M50,86c-19.851,0-36-16.149-36-36s16.149-36,36-36S86,30.15,86,50S69.851,86,50,86z M50,16 c-18.748,0-34,15.252-34,34s15.252,34,34,34s34-15.252,34-34S68.748,16,50,16z M50,80c-16.542,0-30-13.458-30-30s13.458-30,30-30 s30,13.458,30,30S66.542,80,50,80z M50,22c-15.439,0-28,12.561-28,28s12.561,28,28,28S78,65.44,78,50S65.439,22,50,22z"/><path fill="#1f212b" d="M58.167,27.394c-0.056,0-0.111-0.009-0.167-0.029c-1.06-0.375-2.157-0.677-3.264-0.898 c-0.271-0.054-0.447-0.317-0.393-0.588c0.055-0.271,0.327-0.447,0.588-0.392c1.153,0.231,2.298,0.546,3.402,0.937 c0.26,0.092,0.396,0.377,0.305,0.638C58.565,27.266,58.373,27.394,58.167,27.394z"/><path fill="#1f212b" d="M26.062,45.262c-0.035,0-0.07-0.003-0.106-0.011c-0.27-0.059-0.44-0.325-0.382-0.595 c1.77-8.125,7.448-14.813,15.19-17.893c3.689-1.469,7.725-2.03,11.681-1.644c0.274,0.027,0.476,0.271,0.449,0.546 c-0.027,0.275-0.276,0.474-0.547,0.449c-3.795-0.371-7.672,0.168-11.214,1.578C33.7,30.648,28.249,37.069,26.55,44.868 C26.499,45.102,26.292,45.262,26.062,45.262z"/><path fill="#1f212b" d="M31.634,66.715c-0.138,0-0.275-0.057-0.375-0.169c-1.543-1.747-2.834-3.697-3.836-5.796 c-0.119-0.249-0.014-0.547,0.235-0.667c0.251-0.121,0.548-0.014,0.667,0.236c0.962,2.015,2.201,3.887,3.684,5.564 c0.183,0.207,0.163,0.523-0.044,0.706C31.87,66.674,31.752,66.715,31.634,66.715z"/><path fill="#1f212b" d="M50,75c-5.899,0-11.626-2.093-16.124-5.895c-0.211-0.178-0.238-0.494-0.06-0.705 c0.18-0.211,0.494-0.237,0.704-0.059C38.84,71.991,44.337,74,50,74c4.179,0,8.293-1.09,11.898-3.152 c5.324-3.045,9.246-7.938,11.043-13.776c0.08-0.264,0.356-0.415,0.625-0.331c0.264,0.082,0.412,0.361,0.33,0.625 c-1.872,6.083-5.956,11.179-11.502,14.351C58.639,73.864,54.353,75,50,75z"/><g><path fill="#1f212b" d="M72.513,40.819c-0.193,0-0.378-0.113-0.459-0.302c-2.271-5.273-6.364-9.567-11.527-12.091 c-0.248-0.121-0.351-0.421-0.229-0.669c0.122-0.249,0.422-0.35,0.669-0.229c5.377,2.628,9.642,7.101,12.006,12.594 c0.109,0.254-0.008,0.548-0.262,0.657C72.646,40.806,72.579,40.819,72.513,40.819z"/></g></svg>